<svg width="536" height="647" viewBox="0 0 536 647" fill="none" xmlns="http://www.w3.org/2000/svg">
<path fill-rule="evenodd" clip-rule="evenodd" d="M54.7 403.3V395.7C54.7 394.5 55.3 393.9 56.5 393.9H78.3C79.5 393.9 80.1 394.5 80.1 395.7V450.6C80.1 454.2 80.7667 456.667 82.1 458C83.5 459.4 85.7 460.1 88.7 460.1H94.2C99 460.1 101.4 463.733 101.4 471C101.4 475.2 100.833 478.033 99.7 479.5C98.5667 480.967 96.7333 481.7 94.2 481.7H75.6C69.7333 481.7 65.1667 480.8 61.9 479C58.6333 477.133 56.4667 473.633 55.4 468.5C52.8 470.633 49.7667 472.233 46.3 473.3C42.8333 474.367 39.1667 474.9 35.3 474.9C30.7 474.9 26.2667 474.267 22 473C17.8 471.667 14.0667 469.633 10.8 466.9C7.6 464.167 5.06667 460.567 3.2 456.1C1.4 451.7 0.5 446.333 0.5 440C0.5 432.867 1.53333 426.933 3.6 422.2C5.66667 417.533 8.4 413.8 11.8 411C15.2 408.133 19.0667 406.133 23.4 405C27.8 403.867 32.2667 403.3 36.8 403.3H54.7ZM18.4 381.2C17.2 381.2 16.6 380.6 16.6 379.4V361.8C16.6 360.6 17.2 360 18.4 360H36.3C37.4333 360 38 360.6 38 361.8V379.4C38 380.6 37.4333 381.2 36.3 381.2H18.4ZM39.8 453.3C44.3333 453.3 47.9667 452 50.7 449.4C53.3667 446.867 54.7 442.833 54.7 437.3V425H40.4C35.8667 425 32.2 426.067 29.4 428.2C26.6667 430.333 25.3 434.267 25.3 440C25.3 444.933 26.6667 448.367 29.4 450.3C32.2 452.3 35.6667 453.3 39.8 453.3ZM45.9 381.2C44.7 381.2 44.1 380.6 44.1 379.4V361.8C44.1 360.6 44.7 360 45.9 360H64C65.2 360 65.8 360.6 65.8 361.8V379.4C65.8 380.6 65.2 381.2 64 381.2H45.9Z" fill="#050E38"/>
<path fill-rule="evenodd" clip-rule="evenodd" d="M145.9 403.3C152.033 403.3 157.533 404 162.4 405.4C167.267 406.8 171.433 408.767 174.9 411.3C178.367 413.9 181.033 417.1 182.9 420.9C184.767 424.7 185.7 429.1 185.7 434.1C185.7 439.7 184.367 444.734 181.7 449.2C179.1 453.734 175.767 457.434 171.7 460.3C172.633 460.167 173.633 460.1 174.7 460.1C175.7 460.1 176.667 460.1 177.6 460.1H195.9C198.233 460.1 200 460.834 201.2 462.3C202.4 463.834 203 466.667 203 470.8C203 474.867 202.433 477.7 201.3 479.3C200.167 480.9 198.367 481.7 195.9 481.7H169.2C164.933 481.7 160.867 481.534 157 481.2C153.2 480.867 149.567 479.6 146.1 477.4C142.167 479.6 137.967 480.867 133.5 481.2C129.033 481.534 125.067 481.7 121.6 481.7H95.7C93.1667 481.7 91.3333 480.867 90.2 479.2C89.0667 477.534 88.5 474.667 88.5 470.6C88.5 466.8 89.0667 464.1 90.2 462.5C91.3333 460.9 93.1667 460.1 95.7 460.1H120C115.933 457.367 112.633 453.734 110.1 449.2C107.5 444.734 106.2 439.7 106.2 434.1C106.2 429.1 107.133 424.7 109 420.9C110.867 417.1 113.533 413.9 117 411.3C120.4 408.767 124.567 406.8 129.5 405.4C134.367 404 139.833 403.3 145.9 403.3ZM123.6 388.3C122.4 388.3 121.8 387.7 121.8 386.5V369C121.8 367.8 122.4 367.2 123.6 367.2H141.5C142.7 367.2 143.3 367.8 143.3 369V386.5C143.3 387.7 142.7 388.3 141.5 388.3H123.6ZM145.9 421.1C142.1 421.1 138.733 422.267 135.8 424.6C132.867 427 131.4 430.834 131.4 436.1C131.4 441.567 132.833 445.934 135.7 449.2C138.567 452.534 141.967 455.134 145.9 457C149.833 455.134 153.233 452.534 156.1 449.2C158.967 445.934 160.4 441.567 160.4 436.1C160.4 430.834 158.933 427 156 424.6C153 422.267 149.633 421.1 145.9 421.1ZM151.1 388.3C149.9 388.3 149.3 387.7 149.3 386.5V369C149.3 367.8 149.9 367.2 151.1 367.2H169.2C170.4 367.2 171 367.8 171 369V386.5C171 387.7 170.4 388.3 169.2 388.3H151.1Z" fill="#050E38"/>
<path fill-rule="evenodd" clip-rule="evenodd" d="M196.4 481.7C193.867 481.7 192.033 480.967 190.9 479.5C189.767 478.034 189.2 475.134 189.2 470.8C189.267 467 189.867 464.267 191 462.6C192.2 460.934 194 460.1 196.4 460.1H210.2C208.267 456.167 207.3 450.8 207.3 444C207.3 436.134 208.4 429.6 210.6 424.4C212.8 419.2 215.767 415.034 219.5 411.9C223.167 408.834 227.4 406.634 232.2 405.3C237 403.967 241.9 403.3 246.9 403.3C252.1 403.3 257.1 403.967 261.9 405.3C266.7 406.634 270.9 408.834 274.5 411.9C278.167 415.034 281.067 419.2 283.2 424.4C285.333 429.6 286.4 436.134 286.4 444C286.4 451.267 285.4 457.3 283.4 462.1C281.333 466.967 278.567 470.867 275.1 473.8C271.567 476.734 267.367 478.767 262.5 479.9C257.7 481.1 252.5 481.7 246.9 481.7H196.4ZM246.8 425C237.067 425 232.2 430.834 232.2 442.5C232.2 449.434 233.4 454.234 235.8 456.9C238.267 459.5 241.933 460.8 246.8 460.8C251.733 460.8 255.4 459.5 257.8 456.9C260.267 454.367 261.5 449.767 261.5 443.1C261.5 431.034 256.6 425 246.8 425ZM235.6 388.3C234.4 388.3 233.8 387.7 233.8 386.5V369C233.8 367.8 234.4 367.2 235.6 367.2H257.7C258.9 367.2 259.5 367.8 259.5 369V386.5C259.5 387.7 258.9 388.3 257.7 388.3H235.6Z" fill="#050E38"/>
<path d="M331 479.9C331 481.1 330.4 481.7 329.2 481.7H307.5C306.3 481.7 305.7 481.1 305.7 479.9V361.8C305.7 360.6 306.3 360 307.5 360H329.2C330.4 360 331 360.6 331 361.8V479.9Z" fill="#050E38"/>
<path fill-rule="evenodd" clip-rule="evenodd" d="M366.8 518.4C365.6 518.4 365 517.8 365 516.6V498.6C365 497.4 365.6 496.8 366.8 496.8H387.3C389.833 496.8 392.1 496.566 394.1 496.1C396.033 495.7 397.667 494.966 399 493.9C400.267 492.833 401.267 491.3 402 489.3C402.733 487.366 403.1 484.833 403.1 481.7H385.9C374.233 481.7 365.267 478.9 359 473.3C352.733 467.7 349.6 458.1 349.6 444.5C349.6 436.9 350.7 430.466 352.9 425.2C355.1 419.933 358.033 415.7 361.7 412.5C365.3 409.233 369.467 406.9 374.2 405.5C378.933 404.033 383.8 403.3 388.8 403.3C394.067 403.3 399.067 403.966 403.8 405.3C408.6 406.633 412.767 408.8 416.3 411.8C419.9 414.866 422.733 419 424.8 424.2C426.933 429.4 428 435.8 428 443.4V460.1H440.1C444.9 460.1 447.3 463.666 447.3 470.8C447.3 475.333 446.733 478.3 445.6 479.7C444.467 481.033 442.633 481.7 440.1 481.7H428V485.1C428 496.3 425.167 504.666 419.5 510.2C413.833 515.666 404.967 518.4 392.9 518.4H366.8ZM389 425C384.2 425 380.533 426.666 378 430C375.4 433.333 374.1 437.866 374.1 443.6C374.1 450.2 375.5 454.6 378.3 456.8C381.1 459 384.767 460.1 389.3 460.1H403.1V442.7C403.1 430.9 398.4 425 389 425Z" fill="#050E38"/>
<path fill-rule="evenodd" clip-rule="evenodd" d="M495.8 483C489.467 483 483.633 482.2 478.3 480.6C473.033 478.933 468.6 476.1 465 472.1C463.333 474.433 461.4 476.233 459.2 477.5C457 478.766 454.767 479.733 452.5 480.4C450.233 481.066 448.033 481.466 445.9 481.6C443.7 481.666 441.767 481.7 440.1 481.7C437.767 481.7 436 480.933 434.8 479.4C433.6 477.866 433 475.133 433 471.2C433 467 433.567 464.1 434.7 462.5C435.833 460.9 437.633 460.1 440.1 460.1H445.3C447.967 460.1 450.433 458.966 452.7 456.7C454.967 454.433 456.2 450.2 456.4 444V440.4C456.4 433.333 457.5 427.433 459.7 422.7C461.9 417.9 464.833 414.066 468.5 411.2C472.167 408.333 476.333 406.3 481 405.1C485.733 403.9 490.667 403.3 495.8 403.3C501.067 403.3 506.067 403.966 510.8 405.3C515.6 406.633 519.8 408.833 523.4 411.9C527.067 415.033 529.967 419.2 532.1 424.4C534.233 429.6 535.3 436.133 535.3 444C535.3 451.266 534.3 457.4 532.3 462.4C530.3 467.4 527.533 471.433 524 474.5C520.467 477.5 516.3 479.666 511.5 481C506.633 482.333 501.4 483 495.8 483ZM495.8 425C485.867 425 480.9 431.033 480.9 443.1C480.9 449.9 482.167 454.633 484.7 457.3C487.233 459.966 490.933 461.3 495.8 461.3C500.8 461.3 504.5 459.966 506.9 457.3C509.3 454.633 510.5 449.9 510.5 443.1C510.5 431.033 505.6 425 495.8 425Z" fill="#050E38"/>
<path d="M0 572C0 571.267 0.333333 570.9 1 570.9H13.3C14.1 570.9 14.6333 571.267 14.9 572L32.6 611.9H33L50.4 572C50.6667 571.267 51.2333 570.9 52.1 570.9H64.1C64.7667 570.9 65.1 571.267 65.1 572V639.9C65.1 640.567 64.7667 640.9 64.1 640.9H52.5C51.7667 640.9 51.4 640.567 51.4 639.9V600.5H51L38.1 630C37.6333 630.867 36.9667 631.3 36.1 631.3H29C28.1333 631.3 27.5 630.867 27.1 630L14.1 600.5H13.7V639.9C13.7 640.567 13.3667 640.9 12.7 640.9H1C0.333333 640.9 0 640.567 0 639.9L0 572Z" fill="#050E38"/>
<path fill-rule="evenodd" clip-rule="evenodd" d="M104.1 642C98.0333 642 92.7 640.6 88.1 637.8C83.5666 635 80.4 630.766 78.6 625.1C78.2 623.833 77.8666 622.6 77.6 621.4C77.4 620.266 77.2333 618.966 77.1 617.5C76.9 616.1 76.7666 614.466 76.7 612.6C76.6333 610.733 76.6 608.5 76.6 605.9C76.6 603.3 76.6333 601.066 76.7 599.2C76.7666 597.333 76.9 595.7 77.1 594.3C77.2333 592.833 77.4 591.533 77.6 590.4C77.8666 589.2 78.2 588 78.6 586.8C80.4 581.133 83.5666 576.9 88.1 574.1C92.7 571.233 98.0333 569.8 104.1 569.8C110.233 569.8 115.567 571.233 120.1 574.1C124.7 576.9 127.867 581.133 129.6 586.8C130 588 130.333 589.2 130.6 590.4C130.867 591.533 131.067 592.833 131.2 594.3C131.333 595.7 131.433 597.333 131.5 599.2C131.567 601.066 131.6 603.3 131.6 605.9C131.6 608.5 131.567 610.733 131.5 612.6C131.433 614.466 131.333 616.1 131.2 617.5C131.067 618.966 130.867 620.266 130.6 621.4C130.333 622.6 130 623.833 129.6 625.1C127.867 630.766 124.7 635 120.1 637.8C115.567 640.6 110.233 642 104.1 642ZM104.1 628.7C106.967 628.7 109.333 628 111.2 626.6C113.067 625.2 114.367 623.3 115.1 620.9C115.3 620.3 115.467 619.6 115.6 618.8C115.733 618 115.867 617.033 116 615.9C116.067 614.766 116.133 613.4 116.2 611.8C116.267 610.133 116.3 608.166 116.3 605.9C116.3 603.633 116.267 601.666 116.2 600C116.133 598.4 116.067 597.033 116 595.9C115.867 594.766 115.733 593.8 115.6 593C115.467 592.2 115.3 591.5 115.1 590.9C114.367 588.5 113.067 586.6 111.2 585.2C109.333 583.866 106.967 583.2 104.1 583.2C101.233 583.2 98.8666 583.866 97 585.2C95.1333 586.6 93.8333 588.5 93.1 590.9C92.9 591.5 92.7333 592.2 92.6 593C92.4666 593.8 92.3333 594.766 92.2 595.9C92.1333 597.033 92.0666 598.4 92 600C92 601.666 92 603.633 92 605.9C92 608.166 92 610.133 92 611.8C92.0666 613.4 92.1333 614.766 92.2 615.9C92.3333 617.033 92.4666 618 92.6 618.8C92.7333 619.6 92.9 620.3 93.1 620.9C93.8333 623.3 95.1333 625.2 97 626.6C98.8666 628 101.233 628.7 104.1 628.7Z" fill="#050E38"/>
<path d="M194.5 640.9C193.833 640.9 193.4 640.567 193.2 639.9L181.1 596.3H180.9L168.6 639.9C168.4 640.567 167.967 640.9 167.3 640.9H157C156.4 640.9 156 640.567 155.8 639.9L137.6 572C137.467 571.267 137.767 570.9 138.5 570.9H151.7C152.433 570.9 152.867 571.267 153 572L163.1 615.9H163.3L175.2 572C175.4 571.267 175.833 570.9 176.5 570.9H185.5C186.1 570.9 186.5 571.267 186.7 572L199.1 615.9H199.3L208.9 572C208.967 571.267 209.4 570.9 210.2 570.9H223.3C224.033 570.9 224.333 571.267 224.2 572L206.2 639.9C206.067 640.567 205.6 640.9 204.8 640.9H194.5Z" fill="#050E38"/>
<path fill-rule="evenodd" clip-rule="evenodd" d="M247.5 572C247.7 571.267 248.167 570.9 248.9 570.9H261.8C262.533 570.9 263 571.267 263.2 572L286.8 639.9C287 640.567 286.767 640.9 286.1 640.9H272.7C272.033 640.9 271.6 640.567 271.4 639.9L267.4 627.6H242.9L239 639.9C238.8 640.567 238.333 640.9 237.6 640.9H224.2C223.467 640.9 223.233 640.567 223.5 639.9L247.5 572ZM263.2 614.8L255.3 590.3H255L247 614.8H263.2Z" fill="#050E38"/>
<path d="M295 572C295 571.267 295.333 570.9 296 570.9H340.8C341.533 570.9 341.9 571.267 341.9 572V583C341.9 583.667 341.533 584 340.8 584H310.7C310.3 584 310.1 584.2 310.1 584.6V599.3C310.1 599.7 310.3 599.9 310.7 599.9H335.8C336.467 599.9 336.8 600.267 336.8 601V611.9C336.8 612.567 336.467 612.9 335.8 612.9H310.7C310.3 612.9 310.1 613.1 310.1 613.5V639.9C310.1 640.567 309.733 640.9 309 640.9H296C295.333 640.9 295 640.567 295 639.9V572Z" fill="#050E38"/>
<path fill-rule="evenodd" clip-rule="evenodd" d="M365.1 572C365.3 571.267 365.767 570.9 366.5 570.9H379.4C380.067 570.9 380.533 571.267 380.8 572L404.4 639.9C404.6 640.567 404.367 640.9 403.7 640.9H390.3C389.633 640.9 389.2 640.567 389 639.9L385 627.6H360.5L356.6 639.9C356.4 640.567 355.933 640.9 355.2 640.9H341.8C341.067 640.9 340.8 640.567 341 639.9L365.1 572ZM380.9 614.8L373 590.3H372.6L364.7 614.8H380.9Z" fill="#050E38"/>
<path fill-rule="evenodd" clip-rule="evenodd" d="M461 645.9C460.8 646.1 460.567 646.233 460.3 646.3C460.033 646.3 459.767 646.166 459.5 645.9L452.4 638.8C448.133 640.933 443.4 642 438.2 642C432.067 642 426.733 640.6 422.2 637.8C417.6 635 414.4 630.766 412.6 625.1C412.2 623.833 411.9 622.6 411.7 621.4C411.433 620.266 411.233 618.966 411.1 617.5C410.967 616.1 410.867 614.466 410.8 612.6C410.733 610.733 410.7 608.5 410.7 605.9C410.7 603.3 410.733 601.066 410.8 599.2C410.867 597.333 410.967 595.7 411.1 594.3C411.233 592.833 411.433 591.533 411.7 590.4C411.9 589.2 412.2 588 412.6 586.8C414.4 581.133 417.6 576.9 422.2 574.1C426.733 571.233 432.067 569.8 438.2 569.8C444.333 569.8 449.667 571.2 454.2 574C458.667 576.8 461.833 581.066 463.7 586.8C464.1 588 464.4 589.2 464.6 590.4C464.867 591.533 465.067 592.833 465.2 594.3C465.333 595.7 465.433 597.333 465.5 599.2C465.567 601.066 465.6 603.3 465.6 605.9C465.6 608.5 465.567 610.733 465.5 612.6C465.433 614.466 465.333 616.1 465.2 617.5C465.067 618.966 464.867 620.266 464.6 621.4C464.4 622.6 464.1 623.833 463.7 625.1C463.433 625.833 463.133 626.533 462.8 627.2C462.533 627.866 462.233 628.566 461.9 629.3L469.2 636.5C469.667 636.966 469.667 637.433 469.2 637.9L461 645.9ZM438.2 628.7C439.6 628.7 440.833 628.566 441.9 628.3L437.5 623.9C436.967 623.433 436.967 622.966 437.5 622.5L445.7 614.6C446.233 614.133 446.733 614.133 447.2 614.6L450 617.4C450.133 616.266 450.233 614.766 450.3 612.9C450.367 611.1 450.4 608.766 450.4 605.9C450.4 603.633 450.4 601.666 450.4 600C450.333 598.4 450.267 597 450.2 595.8C450.067 594.666 449.933 593.7 449.8 592.9C449.667 592.1 449.5 591.4 449.3 590.8C448.567 588.4 447.233 586.5 445.3 585.1C443.433 583.766 441.067 583.1 438.2 583.1C435.333 583.1 432.933 583.766 431 585.1C429.133 586.5 427.833 588.4 427.1 590.8C426.9 591.4 426.733 592.1 426.6 592.9C426.467 593.7 426.333 594.666 426.2 595.8C426.067 597 426 598.4 426 600C425.933 601.666 425.9 603.633 425.9 605.9C425.9 608.166 425.933 610.133 426 611.8C426 613.4 426.067 614.8 426.2 616C426.333 617.133 426.467 618.1 426.6 618.9C426.733 619.7 426.9 620.4 427.1 621C427.833 623.4 429.133 625.3 431 626.7C432.933 628.033 435.333 628.7 438.2 628.7Z" fill="#050E38"/>
<path fill-rule="evenodd" clip-rule="evenodd" d="M496 572C496.2 571.267 496.633 570.9 497.3 570.9H510.3C510.967 570.9 511.4 571.267 511.6 572L535.3 639.9C535.5 640.567 535.267 640.9 534.6 640.9H521.2C520.467 640.9 520 640.567 519.8 639.9L515.8 627.6H491.3L487.4 639.9C487.2 640.567 486.767 640.9 486.1 640.9H472.6C471.933 640.9 471.7 640.567 471.9 639.9L496 572ZM511.7 614.8L503.8 590.3H503.5L495.6 614.8H511.7Z" fill="#050E38"/>
<path d="M408.038 170.9C394.638 240.6 330.838 292.6 256.238 287.2C185.438 282.1 128.237 224.7 123.337 154C122.437 140.3 123.338 127 126.038 114.4C126.538 112.5 126.938 110.6 127.438 108.6C127.838 106.733 128.338 104.833 128.938 102.9C129.471 101.167 130.038 99.4333 130.638 97.7C130.704 97.4333 130.771 97.1667 130.837 96.9C131.337 95.4 131.938 93.8 132.538 92.3C132.638 92.1 132.737 91.7 132.837 91.5C133.337 90.2 133.837 89 134.337 87.8C134.837 86.8 135.238 85.7 135.738 84.6C136.738 82.3 137.838 80.2 138.938 78C140.671 74.6667 142.504 71.4 144.438 68.2C150.338 58.7 157.338 50 165.138 42.1C167.204 40.1 169.304 38.1333 171.438 36.2C173.638 34.3 175.838 32.5 178.038 30.7C179.938 29.2 181.738 27.9 183.638 26.6C184.738 25.7 185.838 24.9 187.038 24.2C188.504 23.2 190.004 22.2333 191.538 21.3C192.738 20.5 194.038 19.8 195.238 19.1C195.504 18.9667 195.804 18.8 196.138 18.6C198.204 17.4 200.338 16.2667 202.538 15.2C215.538 8.7 229.438 4.2 243.738 1.9H243.838C246.238 1.5 248.638 1.1 251.138 0.9C254.538 0.5 257.938 0.2 261.438 0.1C263.238 -7.45058e-09 265.037 0 266.837 0C278.938 0 291.138 1.5 303.238 4.7C316.438 8.1 323.038 23 317.138 35.3C312.738 44.6 302.337 49.8 292.337 47.2C281.438 44.3 270.237 43.4 259.337 44.2C257.438 44.3 255.538 44.6 253.738 44.8C244.138 46 234.938 48.7 226.338 52.5C222.838 54 219.438 55.8 216.138 57.7C215.138 58.3 214.038 59 213.038 59.6C212.938 59.7 212.938 59.7 212.838 59.8C211.771 60.4667 210.738 61.1667 209.738 61.9C208.004 63.0333 206.338 64.2667 204.738 65.6C202.938 67 201.138 68.5 199.438 70.1C198.338 71.1 197.238 72.2 196.138 73.3C194.938 74.4 193.938 75.5 192.938 76.6C190.938 78.7 189.238 80.8 187.438 83.1C187.138 83.5 186.838 83.9 186.538 84.4C185.638 85.5 184.738 86.7 184.038 88C183.038 89.3 182.238 90.6 181.438 92C180.538 93.3 179.738 94.8 179.038 96.2C178.238 97.6 177.438 99 176.738 100.5C176.038 102 175.438 103.4 174.738 104.9C174.138 106.4 173.638 107.8 173.138 109.2C173.004 109.333 172.938 109.467 172.938 109.6C172.638 110.2 172.438 110.9 172.238 111.6C172.038 112.3 171.738 113 171.538 113.7C171.004 115.3 170.538 116.933 170.138 118.6C170.038 118.8 170.038 119 169.938 119.2C169.638 120.3 169.438 121.5 169.238 122.6C168.904 123.867 168.638 125.1 168.438 126.3C168.304 127.3 168.138 128.333 167.938 129.4C167.938 129.4 167.938 129.5 167.938 129.6C166.738 137.9 166.538 146.5 167.538 155.3C172.638 201 209.438 237.8 255.038 243C308.838 249.2 355.438 212.3 364.938 162.4C366.938 152.3 376.037 145.1 386.337 145.1C400.038 145.1 410.638 157.5 408.038 170.9Z" fill="#4361EE"/>
<path d="M206.538 145.8C221.471 160.733 236.371 175.667 251.238 190.6C259.638 199 273.938 199 282.338 190.6C318.338 154.533 354.338 118.5 390.338 82.5C395.538 77.3 400.738 72.1333 405.938 67C414.038 58.8 414.638 43.9 405.938 35.9C397.138 27.9 383.538 27.2 374.838 35.9C338.838 71.9 302.838 107.933 266.838 144C261.638 149.2 256.438 154.367 251.238 159.5C261.571 159.5 271.938 159.5 282.338 159.5C267.404 144.633 252.471 129.733 237.538 114.8C229.438 106.7 214.538 106.1 206.538 114.8C198.438 123.6 197.838 137.2 206.538 145.8Z" fill="#27F47A"/>
</svg>
